<svg width="21" height="24" viewBox="0 0 21 24" fill="none" xmlns="http://www.w3.org/2000/svg">
<path d="M4.99242 15.7959L16.9284 1.00993L16.6456 0.778567C16.4509 0.619261 16.1639 0.647964 16.0046 0.842676L4.35245 15.0845C4.09189 15.403 4.35368 15.8763 4.76192 15.8249L4.99242 15.7959Z" fill="white"/>
<path d="M7.82551 18.7526C8.02022 18.9119 8.30721 18.8832 8.46652 18.6885L20.2353 4.30411C20.3946 4.1094 20.3659 3.82241 20.1712 3.66311L19.7924 3.35322L7.44676 18.4427L7.82551 18.7526Z" fill="white"/>
<rect width="0.752753" height="3.85372" transform="matrix(0.633228 -0.773965 -0.773965 -0.633228 19.3437 3.95868)" fill="white"/>
<path d="M3.19425 21.3199L4.49706 18.2502L5.08741 15.6528L4.34787 15.0588L2.64165 20.551C2.56845 20.7866 2.65657 21.0425 2.85934 21.1831L3.19425 21.3199Z" fill="white"/>
<path d="M3.19425 21.3199L4.49706 18.2502L5.08741 15.6528L4.34787 15.0588L2.64165 20.551C2.56845 20.7866 2.65657 21.0425 2.85934 21.1831L3.19425 21.3199Z" fill="white"/>
<path d="M3.19425 21.3199L4.49706 18.2502L5.08741 15.6528L4.34787 15.0588L2.64165 20.551C2.56845 20.7866 2.65657 21.0425 2.85934 21.1831L3.19425 21.3199Z" fill="white"/>
<path d="M3.19425 21.3199L4.49706 18.2502L5.08741 15.6528L4.34787 15.0588L2.64165 20.551C2.56845 20.7866 2.65657 21.0425 2.85934 21.1831L3.19425 21.3199Z" fill="white"/>
<path d="M2.83527 21.0641L4.52107 17.7559L4.38042 19.5128L5.90396 19.0811L7.80748 18.077L8.37999 18.7943L3.69372 21.2957C3.39129 21.4571 3.01548 21.3557 2.83527 21.0641Z" fill="white"/>
<path d="M2.83527 21.0641L4.52107 17.7559L4.38042 19.5128L5.90396 19.0811L7.80748 18.077L8.37999 18.7943L3.69372 21.2957C3.39129 21.4571 3.01548 21.3557 2.83527 21.0641Z" fill="white"/>
<path d="M2.83527 21.0641L4.52107 17.7559L4.38042 19.5128L5.90396 19.0811L7.80748 18.077L8.37999 18.7943L3.69372 21.2957C3.39129 21.4571 3.01548 21.3557 2.83527 21.0641Z" fill="white"/>
<path d="M2.83527 21.0641L4.52107 17.7559L4.38042 19.5128L5.90396 19.0811L7.80748 18.077L8.37999 18.7943L3.69372 21.2957C3.39129 21.4571 3.01548 21.3557 2.83527 21.0641Z" fill="white"/>
<path d="M6.42807 16.4322C6.56447 16.5438 6.76546 16.5239 6.87741 16.3878L17.9886 2.87797L17.495 2.47414L6.38962 16.0477C6.29408 16.1645 6.31129 16.3366 6.42807 16.4322Z" fill="white"/>
</svg>
