<svg width="349" height="192" viewBox="0 0 349 192" fill="none" xmlns="http://www.w3.org/2000/svg">
<circle cx="44.8553" cy="44.8553" r="44.8553" fill="white"/>
<path d="M45.1827 18.0073H109.683C109.683 18.0073 138.822 18.0073 139.477 46.8196C139.477 46.8196 139.477 116.231 139.477 156.175C139.477 196.119 200.703 199.393 200.703 156.175" stroke="white" stroke-width="7.85786"/>
<path d="M163.474 129.767V84.8467H170.376V129.767H163.474ZM166.983 77.3601C165.638 77.3601 164.478 76.9019 163.503 75.9856C162.548 75.0692 162.07 73.9677 162.07 72.6809C162.07 71.3942 162.548 70.2926 163.503 69.3763C164.478 68.4599 165.638 68.0018 166.983 68.0018C168.329 68.0018 169.479 68.4599 170.434 69.3763C171.409 70.2926 171.897 71.3942 171.897 72.6809C171.897 73.9677 171.409 75.0692 170.434 75.9856C169.479 76.9019 168.329 77.3601 166.983 77.3601ZM219.748 84.8467L203.137 129.767H196.118L179.507 84.8467H186.994L199.394 120.642H199.862L212.262 84.8467H219.748ZM245.498 130.702C241.443 130.702 237.885 129.737 234.824 127.807C231.782 125.877 229.404 123.177 227.688 119.706C225.992 116.236 225.144 112.181 225.144 107.541C225.144 102.861 225.992 98.777 227.688 95.2871C229.404 91.7972 231.782 89.0872 234.824 87.1571C237.885 85.2269 241.443 84.2618 245.498 84.2618C249.553 84.2618 253.102 85.2269 256.143 87.1571C259.204 89.0872 261.583 91.7972 263.279 95.2871C264.995 98.777 265.852 102.861 265.852 107.541C265.852 112.181 264.995 116.236 263.279 119.706C261.583 123.177 259.204 125.877 256.143 127.807C253.102 129.737 249.553 130.702 245.498 130.702ZM245.498 124.503C248.579 124.503 251.113 123.713 253.102 122.134C255.09 120.555 256.562 118.478 257.518 115.905C258.473 113.331 258.951 110.543 258.951 107.541C258.951 104.538 258.473 101.74 257.518 99.1474C256.562 96.5544 255.09 94.4585 253.102 92.8598C251.113 91.2611 248.579 90.4617 245.498 90.4617C242.418 90.4617 239.883 91.2611 237.895 92.8598C235.906 94.4585 234.434 96.5544 233.479 99.1474C232.523 101.74 232.046 104.538 232.046 107.541C232.046 110.543 232.523 113.331 233.479 115.905C234.434 118.478 235.906 120.555 237.895 122.134C239.883 123.713 242.418 124.503 245.498 124.503ZM276.388 129.767V84.8467H283.056V91.6315H283.524C284.342 89.4089 285.824 87.6055 287.969 86.2212C290.113 84.837 292.531 84.1448 295.221 84.1448C295.728 84.1448 296.362 84.1546 297.122 84.1741C297.883 84.1936 298.458 84.2228 298.848 84.2618V91.2806C298.614 91.2221 298.078 91.1343 297.239 91.0174C296.421 90.8809 295.553 90.8126 294.637 90.8126C292.453 90.8126 290.503 91.2708 288.788 92.1871C287.091 93.084 285.746 94.3318 284.752 95.9305C283.777 97.5097 283.29 99.3131 283.29 101.341V129.767H276.388ZM312.841 146.612C311.672 146.612 310.629 146.514 309.712 146.319C308.796 146.144 308.162 145.968 307.811 145.793L309.566 139.71C311.243 140.139 312.724 140.295 314.011 140.178C315.298 140.061 316.439 139.486 317.433 138.452C318.447 137.438 319.373 135.791 320.211 133.51L321.498 130.001L304.887 84.8467H312.374L324.773 120.642H325.241L337.641 84.8467H345.128L326.06 136.317C325.202 138.637 324.14 140.558 322.872 142.079C321.605 143.619 320.133 144.759 318.456 145.5C316.799 146.241 314.928 146.612 312.841 146.612Z" fill="white"/>
</svg>
