<svg width="46" height="45" viewBox="0 0 46 45" fill="none" xmlns="http://www.w3.org/2000/svg">
<path d="M29.533 1.06598C29.533 1.06598 3.42599 0.900572 2.70922 1.09355C1.99245 1.28652 1.99245 1.36923 1.99245 1.36923L1.52379 1.75519C1.25582 2.17205 1.06197 2.61432 1 2.96818V33.872L1.13784 34.3958L1.38595 34.892L2.07516 35.5261L10.4559 39.8267L18.4782 44.0722C18.4782 44.0722 19.2501 44.1825 19.4706 44.0722C19.6912 43.9619 20.0496 43.383 20.0496 43.383V34.7818H20.2701H30.0292C30.0292 34.7818 30.3325 34.7818 30.939 34.451C31.5455 34.1201 31.8211 33.0174 31.8211 33.0174L31.8763 20.8047H27.4929L27.5756 29.6265C27.5756 29.6265 27.4929 29.9022 27.2448 30.1779C26.9967 30.4536 26.6383 30.4811 26.6383 30.4811H20.1598V11.983C20.1598 11.983 20.022 11.4867 19.9117 11.2386C19.8014 10.9905 19.2225 10.4667 19.2225 10.4667L9.46341 5.42174H26.8313C26.8313 5.42174 27.1346 5.50445 27.3275 5.78013C27.5205 6.05581 27.4929 6.30392 27.4929 6.30392V10.6045H31.9314V8.28882L31.8763 4.40172C31.8763 4.40172 31.959 3.35414 31.766 2.55466C31.573 1.75519 30.3876 1.14869 30.3876 1.14869L29.533 1.06598Z" stroke="#FEFEFE"/>
<path d="M23.2199 14.1776C23.6334 13.4883 24.4605 13.3229 24.681 13.2127L37.3072 13.1024L33.8336 9.65639C33.5796 9.15419 33.3374 8.55367 33.5304 7.9196C33.7233 7.28553 34.0266 6.95472 34.0266 6.95472C34.0266 6.95472 34.7985 6.40335 35.2947 6.32065C35.7909 6.23794 36.8385 6.56876 36.8385 6.56876L44.1441 13.8192C44.1441 13.8192 44.8609 14.7013 44.8884 14.8392C44.916 14.977 44.9711 14.9495 44.9987 15.6111C45.0263 16.2727 44.6127 16.7414 44.6127 16.7414L37.7483 23.6885C37.7483 23.6885 36.9764 24.5432 36.3423 24.7637C35.7082 24.9842 34.8536 24.681 34.8536 24.681L34.1369 24.2123L33.5028 23.1648V22.0896L34.1369 21.0144L37.3348 17.8717H25.0118C25.0118 17.8717 24.3778 17.8166 23.7437 17.3755C23.1096 16.9344 22.8891 16.0522 22.8891 16.0522C22.8891 16.0522 22.8064 14.8668 23.2199 14.1776Z" stroke="#FEFEFE"/>
</svg>
