<svg width="45" height="45" viewBox="0 0 45 45" fill="none" xmlns="http://www.w3.org/2000/svg">
<path d="M5.84064 1.00986H34.8246C35.6385 1.27712 36.149 1.51924 36.5565 1.82487C36.964 2.1305 37.2841 2.33283 37.779 2.74176L40.224 5.08493L42.4653 7.47903C43.3344 8.26444 44.0776 10.0603 43.9935 10.2297C43.9094 10.3991 43.9935 39.8249 43.9935 39.8249C43.625 41.158 43.0233 42.1952 42.5163 42.5246C42.5163 42.5246 42.771 42.4737 41.7013 43.1868C40.6316 43.9 39.6637 43.9 39.6637 43.9H5.84064C5.1275 43.7811 5.17843 44.0528 3.65028 43.3397C2.12213 42.6265 1.30712 40.7418 1.30712 40.7418L1.10336 39.6721C1.00149 28.4147 0.99585 5.95094 1.0015 5.54337C1.00714 5.13581 1.27656 3.86241 2.0712 2.94552C2.51267 2.43613 3.50387 1.63406 3.70123 1.4683C3.99543 1.22122 5.28474 0.943931 5.84064 1.00986Z" stroke="white"/>
<mask id="path-2-inside-1_14_567" fill="white">
<rect x="12" y="5" width="21.9014" height="13.2681" rx="0.908774"/>
</mask>
<rect x="12" y="5" width="21.9014" height="13.2681" rx="0.908774" stroke="white" stroke-width="2" mask="url(#path-2-inside-1_14_567)"/>
<rect x="9.5" y="23.5" width="27" height="15.7654" rx="0.537037" stroke="white"/>
</svg>
