<svg width="45" height="45" viewBox="0 0 45 45" fill="none" xmlns="http://www.w3.org/2000/svg">
<path d="M16.6422 7.01315C16.6642 7.07897 15.633 7.45193 15.633 7.45193L13.0004 5.80653L12.2984 5.52133L11.4208 5.34582C11.4208 5.34582 11.0259 5.30194 10.4117 5.30194C9.79738 5.30194 8.65986 5.77875 7.9326 6.48663C6.47567 7.85521 5.59191 8.66325 5.45354 9.22895C5.45354 9.22895 5.19028 9.75548 5.12446 10.4136C5.05864 11.0718 5.25609 12.2565 5.25609 12.2565C5.95557 13.9463 6.80178 14.995 7.31832 15.9641L7.01118 16.71C6.51323 16.7829 6.00773 16.9186 5.12446 17.061C3.84041 17.3625 3.45713 17.6095 2.62346 18.158C1.78979 18.7064 1.06582 20.3738 1.06582 20.3738C0.970061 21.1871 1.01194 22.3125 1 24.4543C1.24132 25.8145 2.42601 26.7798 2.42601 26.7798C2.42601 26.7798 3.06223 27.7232 7.07699 28.4252C7.47189 29.1273 7.20862 29.237 6.9673 29.588C6.83997 29.7732 5.6069 31.815 5.27803 32.7033C4.94916 33.5915 5.21465 35.3733 5.27803 35.3578C5.39246 36.0679 6.06049 36.6872 7.2525 37.9027C7.9499 38.4861 7.99793 38.7661 9.1831 39.4165C9.1831 39.4165 9.77544 39.6797 10.8285 39.7017C11.8815 39.7236 12.5836 39.3507 12.5836 39.3507C13.7653 38.6995 14.4112 38.2753 15.6111 37.5736C15.8252 37.6125 16.1584 37.7169 16.6203 37.9685C16.6203 37.9685 17.0998 40.1361 17.5417 41.369C17.9836 42.6019 19.0268 43.3002 19.6698 43.6726C20.3127 44.0449 23.8233 44.0385 24.1013 44.0236C24.6277 43.9059 24.8618 43.9166 25.5932 43.5409C26.4239 42.989 26.5483 42.6978 26.9753 42.3782C27.6815 41.688 27.8577 40.26 28.4452 38.0782C28.4705 38.0201 28.4452 37.9246 28.4452 37.9246C28.4452 37.9246 29.0595 37.6614 29.213 37.6175C29.3666 37.5736 29.7576 38.0073 30.2222 38.2098C30.9933 38.658 31.8894 39.1348 32.7013 39.5262C33.5132 39.9175 35.5382 39.5877 35.8604 39.3068C36.6283 38.8022 37.8788 37.5517 37.8788 37.5517C37.8788 37.5517 38.5808 36.952 38.7783 36.6741L39.5242 35.4456C39.5242 35.4456 39.6778 35.1384 39.7216 34.5461C39.7655 33.9538 39.5681 32.9007 39.5681 32.9007L39.1293 31.7818L38.5589 30.8604L37.6155 29.215L37.8788 28.491C37.8788 28.491 38.515 28.3814 38.7783 28.3155C39.0415 28.2497 41.1476 27.6793 41.4987 27.5038C41.8497 27.3283 42.5956 26.8237 42.7492 26.6701C42.9027 26.5166 43.5609 25.6171 43.5609 25.6171C43.6185 25.3866 43.8468 25.023 43.9119 24.6957C44.0103 24.2008 43.9997 23.138 43.9997 22.787C43.9997 22.5062 43.9558 21.3829 43.9558 20.8345L43.5609 19.562C43.2903 19.2256 42.6877 18.5002 42.442 18.2896C42.1963 18.079 41.5499 17.6461 41.2573 17.4559L39.1293 16.9952L37.9665 16.7758L37.6155 15.8105C37.6155 15.8105 38.6905 14.0116 38.7563 13.9238C38.8222 13.8361 39.5681 12.1029 39.5681 12.1029C39.5681 12.1029 39.6997 11.2912 39.7216 11.1815C39.7436 11.0718 39.7956 10.1021 39.4803 9.44834C39.1651 8.79454 38.6247 8.21977 38.5369 8.11008C38.4492 8.00039 37.462 7.01315 37.462 7.01315L36.387 6.06979L35.29 5.47745L34.1054 5.30194C32.5419 5.42059 32.4161 5.5652 32.4161 5.5652C32.4161 5.5652 31.736 5.80653 31.1875 6.17949C30.6391 6.55244 29.235 7.42999 29.235 7.42999L28.4233 7.10091L27.9845 4.97286C27.9845 4.97286 27.6335 3.63461 27.2166 2.97645C26.7998 2.31829 25.8564 1.66013 25.8564 1.66013C25.8564 1.66013 24.7814 0.958097 23.7723 1.00197C22.7631 1.04585 22.9825 1.00198 21.6662 1.00198C20.3498 1.00198 20.4157 1.08973 19.7356 1.33106C19.0555 1.57238 18.3973 2.34023 17.9805 2.80094C17.8515 2.94353 17.4488 3.89787 17.432 3.96369C17.4153 4.0295 16.6203 6.94734 16.6422 7.01315Z" stroke="white"/>
<circle cx="22.4562" cy="22.4801" r="7.14509" transform="rotate(-0.0877182 22.4562 22.4801)" stroke="white"/>
</svg>
