<svg width="22" height="19" viewBox="0 0 22 19" fill="none" xmlns="http://www.w3.org/2000/svg">
<path d="M21.3536 4.35355C21.5488 4.15829 21.5488 3.84171 21.3536 3.64645L18.1716 0.464466C17.9763 0.269204 17.6597 0.269204 17.4645 0.464466C17.2692 0.659728 17.2692 0.976311 17.4645 1.17157L20.2929 4L17.4645 6.82843C17.2692 7.02369 17.2692 7.34027 17.4645 7.53553C17.6597 7.7308 17.9763 7.7308 18.1716 7.53553L21.3536 4.35355ZM1 4.5H21V3.5H1V4.5Z" fill="white"/>
<path d="M0.646447 14.6464C0.451184 14.8417 0.451184 15.1583 0.646447 15.3536L3.82843 18.5355C4.02369 18.7308 4.34027 18.7308 4.53553 18.5355C4.7308 18.3403 4.7308 18.0237 4.53553 17.8284L1.70711 15L4.53553 12.1716C4.7308 11.9763 4.7308 11.6597 4.53553 11.4645C4.34027 11.2692 4.02369 11.2692 3.82843 11.4645L0.646447 14.6464ZM1 15.5H21V14.5H1V15.5Z" fill="white"/>
</svg>
