<svg width="26" height="28" viewBox="0 0 26 28" fill="none" xmlns="http://www.w3.org/2000/svg">
<path d="M2.26087 4.52173H23.7391H2.26087ZM24.3044 24.3043C24.3044 26.1773 22.786 27.6956 20.913 27.6956H5.08696C3.21399 27.6956 1.69565 26.1773 1.69565 24.3043H2.82609C2.82609 25.553 3.83832 26.5652 5.08696 26.5652H20.913C22.1617 26.5652 23.1739 25.553 23.1739 24.3043H24.3044ZM5.08696 27.6956C3.21399 27.6956 1.69565 26.1773 1.69565 24.3043V4.52173H2.82609V24.3043C2.82609 25.553 3.83832 26.5652 5.08696 26.5652V27.6956ZM24.3044 4.52173V24.3043C24.3044 26.1773 22.786 27.6956 20.913 27.6956V26.5652C22.1617 26.5652 23.1739 25.553 23.1739 24.3043V4.52173H24.3044Z" fill="white"/>
<rect x="0.282609" y="1.41304" width="25.4348" height="2.82609" rx="0.847826" stroke="white" stroke-width="0.565217"/>
<path d="M10.1739 0.565218C10.1739 0.253057 10.427 0 10.7391 0H15.8261C16.1382 0 16.3913 0.253056 16.3913 0.565217V1.13043H10.1739V0.565218Z" fill="white"/>
<rect x="6.21739" y="6.78259" width="1.13043" height="17.5217" rx="0.565217" fill="white"/>
<rect x="12.4348" y="6.78259" width="1.13043" height="17.5217" rx="0.565217" fill="white"/>
<rect x="18.6522" y="6.78259" width="1.13043" height="17.5217" rx="0.565217" fill="white"/>
</svg>
