<svg width="18" height="18" viewBox="0 0 18 18" fill="none" xmlns="http://www.w3.org/2000/svg">
<path d="M4.72155 15.5745C-2.18221 10.5885 1.2697 1.00005 8.94048 1C16.6112 0.999953 19.6795 10.5885 12.7759 15.5745" stroke="white"/>
<path d="M5.45777 16.4903C5.72855 16.4362 5.90416 16.1727 5.85 15.902L4.96748 11.4894C4.91332 11.2186 4.64991 11.043 4.37913 11.0971C4.10835 11.1513 3.93274 11.4147 3.9869 11.6855L4.77136 15.6078L0.849041 16.3923C0.578261 16.4464 0.402653 16.7098 0.456809 16.9806C0.510965 17.2514 0.774377 17.427 1.04516 17.3728L5.45777 16.4903ZM4.44412 15.9905L5.08236 16.416L5.63706 15.584L4.99882 15.1585L4.44412 15.9905Z" fill="white"/>
</svg>
